<svg xmlns="http://www.w3.org/2000/svg" viewBox="0 0 800 600" role="img" aria-label="Ilustración de registro"
     preserveAspectRatio="xMidYMid meet">
    <defs>
        <linearGradient id="g1" x1="0" x2="1">
            <stop offset="0" stop-color="#6b8cff" stop-opacity="0.95"/>
            <stop offset="1" stop-color="#4ba3ff" stop-opacity="0.9"/>
        </linearGradient>
        <filter id="f1" x="-20%" y="-20%" width="140%" height="140%">
            <feGaussianBlur stdDeviation="12" result="b"/>
            <feBlend in="SourceGraphic" in2="b" mode="normal"/>
        </filter>
    </defs>

    <rect width="100%" height="100%" fill="transparent"/>

    <!-- Fondo con círculos suavizados -->
    <g filter="url(#f1)">
        <circle cx="120" cy="120" r="120" fill="#435fee" opacity="0.18"/>
        <circle cx="680" cy="480" r="160" fill="#48b5ff" opacity="0.14"/>
        <circle cx="420" cy="80" r="90" fill="#667eea" opacity="0.12"/>
    </g>

    <!-- Ilustración simplificada: figura y tarjeta -->
    <g transform="translate(120,120)">
        <rect x="240" y="60" width="320" height="260" rx="18" fill="url(#g1)" opacity="0.95"/>
        <rect x="260" y="90" width="280" height="44" rx="8" fill="#fff" opacity="0.9"/>
        <rect x="260" y="150" width="200" height="14" rx="7" fill="#fff" opacity="0.85"/>
        <rect x="260" y="178" width="160" height="14" rx="7" fill="#fff" opacity="0.8"/>

        <!-- avatar simple -->
        <g transform="translate(-20,40)">
            <circle cx="120" cy="100" r="56" fill="#fff" opacity="0.95"/>
            <circle cx="120" cy="100" r="42" fill="#6b8cff"/>
            <circle cx="120" cy="92" r="12" fill="#fff"/>
        </g>

        <!-- pequeñas decoraciones -->
        <circle cx="40" cy="20" r="6" fill="#fff" opacity="0.85"/>
        <circle cx="520" cy="10" r="8" fill="#fff" opacity="0.6"/>
    </g>

    <!-- Sombra sutil abajo -->
    <ellipse cx="400" cy="540" rx="220" ry="28" fill="#222" opacity="0.04"/>
</svg>

